<svg xmlns="http://www.w3.org/2000/svg" viewBox="0 0 1122 465">
  <g fill-rule="evenodd">
    <path fill="#38bdf8" d="M116 325.6c-31 0-50.3 15.5-58 46.4 11.6-15.4 25-21.2 40.5-17.4 8.9 2.2 15.2 8.6 22.1 15.7 11.4 11.5 24.6 24.9 53.3 24.9 30.9 0 50.2-15.5 58-46.4-11.6 15.5-25.2 21.3-40.6 17.4-8.8-2.2-15.2-8.6-22.1-15.7-11.4-11.5-24.5-24.9-53.3-24.9Zm-58 69.6c-31 0-50.3 15.5-58 46.4 11.6-15.5 25.1-21.3 40.6-17.4 8.8 2.2 15 8.6 22 15.7 11.4 11.5 24.6 24.9 53.3 24.9 31 0 50.3-15.5 58-46.4-11.6 15.4-25.1 21.2-40.6 17.4-8.8-2.2-15.1-8.6-22-15.7-11.5-11.5-24.6-24.9-53.3-24.9Z"/>
    <path fill="#fff" d="M347.7 384.3h-20.2v39.1c0 10.5 6.9 10.3 20.2 9.6v16c-27 3.2-37.8-4.3-37.8-25.5v-39.1h-15v-17h15v-22l17.6-5.1v27h20.2v17Zm77.2-17h17.6v81.6h-17.6V437a33.5 33.5 0 0 1-28.6 13.9 41.7 41.7 0 0 1-40.6-43 41.5 41.5 0 0 1 40.6-42.8c12.7 0 22.4 5.2 28.6 13.7v-11.6ZM399 434.2c14.7 0 25.8-11 25.8-26.1A25.2 25.2 0 0 0 399 382c-14.7 0-25.8 11-25.8 26a25.2 25.2 0 0 0 25.8 26.2Zm72.8-79.1c-6.2 0-11.3-5.3-11.3-11.3a11.3 11.3 0 0 1 22.5 0c0 6-5 11.3-11.2 11.3Zm-8.9 93.8v-81.6h17.7v81.6H463Zm38 0V329.8h17.7v119H501Zm132-81.6h18.6L626 448.9h-17.3l-17-55-17 55h-17.4l-25.6-81.6h18.6l15.9 56.3 17-56.3h16.9l17 56.3 16-56.3Zm40.5-12.2c-6.2 0-11.3-5.3-11.3-11.3a11.3 11.3 0 0 1 22.6 0c0 6-5.1 11.3-11.3 11.3Zm-8.8 93.8v-81.6h17.6v81.6h-17.6Zm81-83.7c18.2 0 31.2 12.4 31.2 33.6v50h-17.6v-48.2c0-12.4-7.2-19-18.3-19-11.5 0-20.7 6.9-20.7 23.5V449h-17.6v-81.6h17.6v10.4c5.4-8.4 14.2-12.5 25.3-12.5Zm114.8-30.5H878v114.2h-17.6V437a33.5 33.5 0 0 1-28.6 13.9 41.7 41.7 0 0 1-40.6-43 41.5 41.5 0 0 1 40.6-42.8c12.7 0 22.4 5.2 28.6 13.7v-44.2Zm-25.8 99.5c14.7 0 25.8-11 25.8-26.1a25.2 25.2 0 0 0-25.8-26.1c-14.7 0-25.8 11-25.8 26a25.2 25.2 0 0 0 25.8 26.2ZM937.2 451a42.2 42.2 0 0 1-43.1-43 42 42 0 0 1 43-42.8c16 0 30 8.3 36.4 21l-15.1 8.8a22.8 22.8 0 0 0-21.4-12.5 24.8 24.8 0 0 0-25.3 25.6c0 14.7 11 25.6 25.3 25.6a24 24 0 0 0 21.7-12.6l15.2 8.7a41 41 0 0 1-36.7 21.2Zm65.7-61.2c0 14.9 43.9 5.9 43.9 36 0 16.4-14.2 25.2-31.8 25.2-16.3 0-28-7.4-33.3-19.1l15.2-8.8c2.6 7.3 9.1 11.7 18 11.7 8 0 14-2.6 14-9.1 0-14.5-44-6.4-44-35.6 0-15.3 13.3-25 30-25 13.3 0 24.4 6.3 30 17l-14.8 8.4c-2.9-6.4-8.6-9.3-15.3-9.3-6.4 0-11.9 2.7-11.9 8.6Zm75.2 0c0 14.9 43.9 5.9 43.9 36 0 16.4-14.2 25.2-31.8 25.2-16.3 0-28-7.4-33.3-19.1l15.2-8.8c2.6 7.3 9.1 11.7 18 11.7 8 0 14-2.6 14-9.1 0-14.5-44-6.4-44-35.6 0-15.3 13.3-25 30-25a33 33 0 0 1 30.1 17l-14.8 8.4c-3-6.4-8.7-9.3-15.4-9.3-6.3 0-11.9 2.7-11.9 8.6Z"/>
  </g>
  <text xml:space="preserve" x="401.3" y="110" fill="#fff" font-family="Helvetica Neue" font-size="148" font-weight="700" letter-spacing="1.5">Zola</text>
  <path fill="none" stroke="#fff" stroke-width="3" d="M608 233.1h-37.9V271H552v-37.9h-38V215h37.9v-38H570v37.9h38V233Z"/>
</svg>
