<svg xmlns="http://www.w3.org/2000/svg" viewBox="0 0 310 465">
  <path fill="#38bdf8" fill-rule="evenodd" d="M146.5 326.1c-30.8 0-50 15.4-57.8 46.2 11.6-15.4 25-21.2 40.5-17.3 8.8 2.2 15 8.5 22 15.6 11.3 11.5 24.4 24.8 53 24.8 30.9 0 50.1-15.4 57.8-46.2-11.6 15.4-25 21.2-40.4 17.3-8.8-2.2-15-8.5-22-15.6-11.4-11.5-24.5-24.8-53.1-24.8Zm-57.8 69.3c-30.7 0-50 15.4-57.7 46.2 11.5-15.4 25-21.2 40.4-17.3 8.8 2.2 15 8.5 22 15.6 11.4 11.5 24.5 24.8 53.1 24.8 30.8 0 50-15.4 57.8-46.2-11.6 15.4-25 21.2-40.5 17.3-8.8-2.2-15-8.5-22-15.6-11.3-11.5-24.4-24.8-53-24.8Z"/>
  <text xml:space="preserve" x="-2.7" y="110" fill="#fff" font-family="Helvetica Neue" font-size="148" font-weight="700" letter-spacing="1.5">Zola</text>
  <path fill="none" stroke="#fff" stroke-width="3" d="M204 233.1h-37.9V271H148v-37.9h-38V215h37.9v-38H166v37.9h38V233Z"/>
</svg>
